<svg width="940" height="821" viewBox="0 0 940 821" fill="none" xmlns="http://www.w3.org/2000/svg">
<path d="M719.034 435.809H700.217C697.908 435.809 696.464 433.309 697.619 431.309L704.155 419.989C705.94 416.897 705.941 413.089 704.159 409.996L675.891 360.943L632.667 435.809H618.339C616.029 435.809 614.586 433.309 615.741 431.309L663.254 349.014C665.038 345.922 665.04 342.114 663.258 339.021L634.99 289.968L470.89 574.197L463.437 561.288C462.008 558.813 462.008 555.763 463.437 553.288L622.352 278.039C624.137 274.947 624.139 271.139 622.357 268.046L594.089 218.993L429.951 503.288L422.498 490.379C421.069 487.904 421.069 484.854 422.498 482.379L581.451 207.064C583.236 203.972 583.238 200.164 581.455 197.071L553.188 148.018L387.032 435.809H372.703C370.394 435.809 368.95 433.309 370.105 431.309L540.55 136.089C542.335 132.997 542.337 129.189 540.554 126.096L512.287 77.0433L305.153 435.809H290.825C288.515 435.809 287.072 433.309 288.227 431.309L499.649 65.114C501.434 62.0225 501.436 58.214 499.653 55.121L471.346 6L192.539 489.809L359.858 489.826L470.907 682.168L581.977 489.826L750.163 489.825L719.034 435.809Z" fill="url(#paint0_radial)"/>
<path fill-rule="evenodd" clip-rule="evenodd" d="M878.963 728.51C878.249 728.51 877.589 728.891 877.231 729.51L830.375 810.641C829.605 811.975 830.567 813.642 832.107 813.642H846.545L856.756 795.962C856.934 795.653 857.264 795.462 857.622 795.462H910.598C910.955 795.462 911.285 795.653 911.464 795.962L921.674 813.642H936.112C937.652 813.642 938.614 811.975 937.844 810.641L890.988 729.51C890.631 728.891 889.97 728.51 889.256 728.51H878.963ZM883.504 749.635C883.773 749.168 884.447 749.168 884.716 749.635L903.524 782.201H864.696L883.504 749.635Z" fill="black"/>
<path d="M737.236 728.592C744.608 728.592 751.009 729.807 756.437 732.236C761.946 734.666 766.159 738.149 769.075 742.684C771.992 747.22 773.45 752.606 773.45 758.842C773.45 764.997 771.992 770.383 769.075 775C766.159 779.535 761.946 783.018 756.437 785.447C751.009 787.877 744.608 789.092 737.236 789.092H697.2C696.648 789.092 696.2 789.54 696.2 790.092V811.632C696.2 812.737 695.305 813.632 694.2 813.632H680.402V730.592C680.402 729.487 681.298 728.592 682.402 728.592H737.236ZM736.507 775.728C743.393 775.728 748.619 774.271 752.183 771.355C755.748 768.439 757.53 764.268 757.53 758.842C757.53 753.415 755.748 749.244 752.183 746.329C748.619 743.413 743.393 741.955 736.507 741.955H697.2C696.648 741.955 696.2 742.403 696.2 742.955V775.728H736.507Z" fill="black"/>
<path fill-rule="evenodd" clip-rule="evenodd" d="M604.406 771.159V772.466C604.406 799.604 594.044 814.329 566.992 814.233H534.925C507.682 814.233 497.416 799.509 497.416 772.37V771.064C497.416 743.925 507.682 729.2 534.925 729.2H566.896C594.044 729.2 604.406 743.925 604.406 771.159ZM587.928 770.39V773.181C587.928 793.23 581.832 801.729 561.84 801.662H540.047C519.929 801.662 513.896 793.163 513.896 773.114V770.323C513.896 750.274 519.929 741.775 540.047 741.775H561.777C581.832 741.775 587.928 750.274 587.928 770.39Z" fill="#08080A"/>
<path d="M251.663 769.454C257.097 770.913 261.233 773.426 264.072 776.994C266.91 780.48 268.329 784.858 268.329 790.128C268.329 797.587 265.572 803.383 260.057 807.518C254.542 811.653 246.554 813.721 236.092 813.721H173.586V730.592C173.586 729.487 174.481 728.592 175.586 728.592H233.781C243.351 728.592 250.812 730.497 256.164 734.308C261.517 738.118 264.193 743.51 264.193 750.482C264.193 754.941 263.099 758.792 260.909 762.035C258.8 765.278 255.718 767.751 251.663 769.454ZM189.157 764.954H232.443C237.552 764.954 241.445 763.94 244.121 761.914C246.797 759.887 248.136 756.887 248.136 752.914C248.136 748.942 246.797 745.942 244.121 743.915C241.445 741.807 237.552 740.753 232.443 740.753H190.157C189.605 740.753 189.157 741.201 189.157 741.753V764.954ZM235.606 801.559C246.797 801.559 252.393 797.343 252.393 788.912C252.393 780.642 246.797 776.507 235.606 776.507H190.157C189.605 776.507 189.157 776.955 189.157 777.507V801.559H235.606Z" fill="black"/>
<path d="M397.884 728.592C405.257 728.592 411.657 729.807 417.085 732.236C422.594 734.666 426.807 738.149 429.724 742.684C432.64 747.22 434.098 752.606 434.098 758.842C434.098 764.997 432.64 770.383 429.724 775C426.807 779.535 422.594 783.018 417.085 785.447C411.657 787.877 405.257 789.092 397.884 789.092H357.849C357.297 789.092 356.849 789.54 356.849 790.092V811.632C356.849 812.737 355.953 813.632 354.849 813.632H341.051V730.592C341.051 729.487 341.946 728.592 343.051 728.592H397.884ZM397.155 775.728C404.042 775.728 409.267 774.271 412.832 771.355C416.396 768.439 418.179 764.268 418.179 758.842C418.179 753.415 416.396 749.244 412.832 746.329C409.267 743.413 404.042 741.955 397.155 741.955H357.849C357.297 741.955 356.849 742.403 356.849 742.955V775.728H397.155Z" fill="black"/>
<path fill-rule="evenodd" clip-rule="evenodd" d="M50.3208 728.599C49.6063 728.599 48.9462 728.98 48.5889 729.598L1.73273 810.73C0.962685 812.064 1.92492 813.731 3.46464 813.731H17.9024L28.113 796.051C28.2917 795.742 28.6217 795.551 28.979 795.551H81.9552C82.3124 795.551 82.6425 795.742 82.8212 796.051L93.0318 813.731H107.47C109.009 813.731 109.972 812.064 109.201 810.73L62.3454 729.598C61.9881 728.98 61.3279 728.599 60.6134 728.599H50.3208ZM54.8612 749.724C55.1307 749.257 55.8041 749.257 56.0735 749.724L74.8814 782.29H36.0534L54.8612 749.724Z" fill="black"/>
<defs>
<radialGradient id="paint0_radial" cx="0" cy="0" r="1" gradientUnits="userSpaceOnUse" gradientTransform="translate(284.491 593.009) rotate(-59.925) scale(678.333 828.452)">
<stop stop-color="#FFBC11"/>
<stop offset="0.473958" stop-color="#CA3838"/>
<stop offset="1" stop-color="#5400BE"/>
</radialGradient>
</defs>
</svg>
