<?xml version="1.0" standalone="no"?>
<!DOCTYPE svg PUBLIC "-//W3C//DTD SVG 20010904//EN"
 "http://www.w3.org/TR/2001/REC-SVG-20010904/DTD/svg10.dtd">
<svg version="1.0" xmlns="http://www.w3.org/2000/svg"
 width="480.000000pt" height="480.000000pt" viewBox="0 0 480.000000 480.000000"
 preserveAspectRatio="xMidYMid meet">

<g transform="translate(0.000000,480.000000) scale(0.100000,-0.100000)"
fill="#000000" stroke="none">
<path d="M2243 4390 c-633 -52 -1216 -414 -1545 -960 -381 -632 -381 -1428 0
-2060 538 -891 1675 -1220 2604 -754 586 294 987 852 1082 1505 21 140 21 418
0 558 -128 878 -805 1562 -1679 1695 -130 19 -334 26 -462 16z m837 -1990 l0
-1190 -210 0 -210 0 0 1025 0 1025 -142 0 c-166 0 -249 -15 -338 -60 -78 -39
-139 -100 -176 -175 -51 -104 -46 -313 10 -439 54 -120 143 -208 366 -358 74
-50 143 -98 152 -106 15 -13 -9 -52 -283 -463 l-299 -449 -225 0 c-124 0 -225
3 -225 6 0 3 119 183 265 399 146 217 265 396 265 398 0 3 -33 29 -73 59 -205
155 -327 322 -383 528 -26 94 -26 329 0 425 70 262 254 440 541 520 136 38
198 42 598 44 l367 1 0 -1190z"/>
</g>
</svg>
